<svg xmlns="http://www.w3.org/2000/svg" xmlns:svg="http://www.w3.org/2000/svg" id="svg2" width="210mm" height="297mm" version="1.1" viewBox="0 0 744.094 1052.362"><defs id="defs4"><marker style="overflow:visible" id="marker6217" orient="auto" refX="0" refY="0"><path style="fill-rule:evenodd;stroke:#0096ff;stroke-width:1pt;stroke-opacity:1;fill:#0096ff;fill-opacity:1" id="path6219" d="M 0.0,0.0 L 5.0,-5.0 L -12.5,0.0 L 5.0,5.0 L 0.0,0.0 z" transform="scale(0.2) translate(6,0)"/></marker><marker style="overflow:visible" id="marker6153" orient="auto" refX="0" refY="0"><path style="fill-rule:evenodd;stroke:#0096ff;stroke-width:1pt;stroke-opacity:1;fill:#0096ff;fill-opacity:1" id="path6155" d="M 0.0,0.0 L 5.0,-5.0 L -12.5,0.0 L 5.0,5.0 L 0.0,0.0 z" transform="scale(0.2) translate(6,0)"/></marker><marker style="overflow:visible" id="marker6095" orient="auto" refX="0" refY="0"><path style="fill-rule:evenodd;stroke:#0096ff;stroke-width:1pt;stroke-opacity:1;fill:#0096ff;fill-opacity:1" id="path6097" d="M 0.0,0.0 L 5.0,-5.0 L -12.5,0.0 L 5.0,5.0 L 0.0,0.0 z" transform="scale(0.2) translate(6,0)"/></marker><marker style="overflow:visible" id="Arrow1Sstart" orient="auto" refX="0" refY="0"><path style="fill-rule:evenodd;stroke:#0096ff;stroke-width:1pt;stroke-opacity:1;fill:#0096ff;fill-opacity:1" id="path4438" d="M 0.0,0.0 L 5.0,-5.0 L -12.5,0.0 L 5.0,5.0 L 0.0,0.0 z" transform="scale(0.2) translate(6,0)"/></marker><marker style="overflow:visible" id="Arrow1Mend" orient="auto" refX="0" refY="0"><path style="fill-rule:evenodd;stroke:#0096ff;stroke-width:1pt;stroke-opacity:1;fill:#0096ff;fill-opacity:1" id="path4435" d="M 0.0,0.0 L 5.0,-5.0 L -12.5,0.0 L 5.0,5.0 L 0.0,0.0 z" transform="scale(0.4) rotate(180) translate(10,0)"/></marker><marker style="overflow:visible" id="Arrow2Send" orient="auto" refX="0" refY="0"><path style="fill-rule:evenodd;stroke-width:.625;stroke-linejoin:round;stroke:#64a508;stroke-opacity:.4;fill:#64a508;fill-opacity:.4" id="path4459" d="M 8.7185878,4.0337352 L -2.2072895,0.016013256 L 8.7185884,-4.0017078 C 6.9730900,-1.6296469 6.9831476,1.6157441 8.7185878,4.0337352 z" transform="scale(0.3) rotate(180) translate(-2.3,0)"/></marker><marker style="overflow:visible" id="Arrow2Send-2" orient="auto" refX="0" refY="0"><path style="fill:#64a508;fill-opacity:.4;fill-rule:evenodd;stroke:#64a508;stroke-width:.625;stroke-linejoin:round;stroke-opacity:.4" id="path4459-0" d="M 8.7185878,4.0337352 -2.2072895,0.01601326 8.7185884,-4.0017078 c -1.7454984,2.3720609 -1.7354408,5.6174519 -6e-7,8.035443 z" transform="matrix(-0.3,0,0,-0.3,0.69,0)"/></marker><marker style="overflow:visible" id="Arrow2Send-2-5" orient="auto" refX="0" refY="0"><path style="fill:#64a508;fill-opacity:.4;fill-rule:evenodd;stroke:#64a508;stroke-width:.625;stroke-linejoin:round;stroke-opacity:.4" id="path4459-0-9" d="M 8.7185878,4.0337352 -2.2072895,0.01601326 8.7185884,-4.0017078 c -1.7454984,2.3720609 -1.7354408,5.6174519 -6e-7,8.035443 z" transform="matrix(-0.3,0,0,-0.3,0.69,0)"/></marker><marker style="overflow:visible" id="Arrow2Send-2-8" orient="auto" refX="0" refY="0"><path style="fill:#64a508;fill-opacity:.4;fill-rule:evenodd;stroke:#64a508;stroke-width:.625;stroke-linejoin:round;stroke-opacity:.4" id="path4459-0-4" d="M 8.7185878,4.0337352 -2.2072895,0.01601326 8.7185884,-4.0017078 c -1.7454984,2.3720609 -1.7354408,5.6174519 -6e-7,8.035443 z" transform="matrix(-0.3,0,0,-0.3,0.69,0)"/></marker><marker style="overflow:visible" id="marker6217-8" orient="auto" refX="0" refY="0"><path style="fill:#0096ff;fill-opacity:1;fill-rule:evenodd;stroke:#0096ff;stroke-width:1pt;stroke-opacity:1" id="path6219-4" d="M 0,0 5,-5 -12.5,0 5,5 0,0 Z" transform="matrix(0.2,0,0,0.2,1.2,0)"/></marker><marker style="overflow:visible" id="marker6153-3" orient="auto" refX="0" refY="0"><path style="fill:#0096ff;fill-opacity:1;fill-rule:evenodd;stroke:#0096ff;stroke-width:1pt;stroke-opacity:1" id="path6155-1" d="M 0,0 5,-5 -12.5,0 5,5 0,0 Z" transform="matrix(0.2,0,0,0.2,1.2,0)"/></marker><marker style="overflow:visible" id="marker6095-4" orient="auto" refX="0" refY="0"><path style="fill:#0096ff;fill-opacity:1;fill-rule:evenodd;stroke:#0096ff;stroke-width:1pt;stroke-opacity:1" id="path6097-9" d="M 0,0 5,-5 -12.5,0 5,5 0,0 Z" transform="matrix(0.2,0,0,0.2,1.2,0)"/></marker><marker style="overflow:visible" id="Arrow2Send-2-2" orient="auto" refX="0" refY="0"><path style="fill:#64a508;fill-opacity:.4;fill-rule:evenodd;stroke:#64a508;stroke-width:.625;stroke-linejoin:round;stroke-opacity:.4" id="path4459-0-0" d="M 8.7185878,4.0337352 -2.2072895,0.01601326 8.7185884,-4.0017078 c -1.7454984,2.3720609 -1.7354408,5.6174519 -6e-7,8.035443 z" transform="matrix(-0.3,0,0,-0.3,0.69,0)"/></marker><marker style="overflow:visible" id="Arrow2Send-6" orient="auto" refX="0" refY="0"><path style="fill:#64a508;fill-opacity:.4;fill-rule:evenodd;stroke:#64a508;stroke-width:.625;stroke-linejoin:round;stroke-opacity:.4" id="path4459-8" d="M 8.7185878,4.0337352 -2.2072895,0.01601326 8.7185884,-4.0017078 c -1.7454984,2.3720609 -1.7354408,5.6174519 -6e-7,8.035443 z" transform="matrix(-0.3,0,0,-0.3,0.69,0)"/></marker><marker style="overflow:visible" id="Arrow2Send-1" orient="auto" refX="0" refY="0"><path style="fill:#64a508;fill-opacity:.4;fill-rule:evenodd;stroke:#64a508;stroke-width:.625;stroke-linejoin:round;stroke-opacity:.4" id="path4459-2" d="M 8.7185878,4.0337352 -2.2072895,0.01601326 8.7185884,-4.0017078 c -1.7454984,2.3720609 -1.7354408,5.6174519 -6e-7,8.035443 z" transform="matrix(-0.3,0,0,-0.3,0.69,0)"/></marker><marker style="overflow:visible" id="Arrow2Send-3" orient="auto" refX="0" refY="0"><path style="fill:#64a508;fill-opacity:.4;fill-rule:evenodd;stroke:#64a508;stroke-width:.625;stroke-linejoin:round;stroke-opacity:.4" id="path4459-9" d="M 8.7185878,4.0337352 -2.2072895,0.01601326 8.7185884,-4.0017078 c -1.7454984,2.3720609 -1.7354408,5.6174519 -6e-7,8.035443 z" transform="matrix(-0.3,0,0,-0.3,0.69,0)"/></marker><marker style="overflow:visible" id="Arrow2Send-8" orient="auto" refX="0" refY="0"><path style="fill:#64a508;fill-opacity:.4;fill-rule:evenodd;stroke:#64a508;stroke-width:.625;stroke-linejoin:round;stroke-opacity:.4" id="path4459-85" d="M 8.7185878,4.0337352 -2.2072895,0.01601326 8.7185884,-4.0017078 c -1.7454984,2.3720609 -1.7354408,5.6174519 -6e-7,8.035443 z" transform="matrix(-0.3,0,0,-0.3,0.69,0)"/></marker><marker style="overflow:visible" id="Arrow2Send-1-3" orient="auto" refX="0" refY="0"><path style="fill:#64a508;fill-opacity:.4;fill-rule:evenodd;stroke:#64a508;stroke-width:.625;stroke-linejoin:round;stroke-opacity:.4" id="path4459-2-7" d="M 8.7185878,4.0337352 -2.2072895,0.01601326 8.7185884,-4.0017078 c -1.7454984,2.3720609 -1.7354408,5.6174519 -6e-7,8.035443 z" transform="matrix(-0.3,0,0,-0.3,0.69,0)"/></marker><marker style="overflow:visible" id="Arrow2Send-35" orient="auto" refX="0" refY="0"><path style="fill:#64a508;fill-opacity:.4;fill-rule:evenodd;stroke:#64a508;stroke-width:.625;stroke-linejoin:round;stroke-opacity:.4" id="path4459-6" d="M 8.7185878,4.0337352 -2.2072895,0.01601326 8.7185884,-4.0017078 c -1.7454984,2.3720609 -1.7354408,5.6174519 -6e-7,8.035443 z" transform="matrix(-0.3,0,0,-0.3,0.69,0)"/></marker></defs><metadata id="metadata7"/><g id="layer1"><text id="text4136" x="16.025" y="148.665" xml:space="preserve" style="font-style:normal;font-weight:400;line-height:0%;font-family:sans-serif;letter-spacing:0;word-spacing:0;fill:#000;fill-opacity:1;stroke:none;stroke-width:1px;stroke-linecap:butt;stroke-linejoin:miter;stroke-opacity:1"><tspan style="font-size:12.5px;line-height:1.25" id="tspan4140" x="16.025" y="148.665">Docker layer A</tspan></text><rect id="rect4228" width="121.55" height="42.702" x="1.651" y="123.865" style="fill:none;fill-opacity:1;stroke:#ffa607;stroke-width:1.53315544;stroke-linejoin:bevel;stroke-miterlimit:4;stroke-dasharray:none;stroke-dashoffset:0;stroke-opacity:1"/><text id="text4338" x="40.565" y="94.667" xml:space="preserve" style="font-style:normal;font-weight:400;line-height:0%;font-family:sans-serif;letter-spacing:0;word-spacing:0;fill:#000;fill-opacity:.9372549;stroke:none;stroke-width:1px;stroke-linecap:butt;stroke-linejoin:miter;stroke-opacity:1"><tspan style="font-size:17.24799919px;line-height:1.25;fill:#000;fill-opacity:.9372549" id="tspan4340" x="40.565" y="94.667">Build Node 5</tspan></text><rect id="rect4364" width="245.067" height="277.626" x="-9.692" y="105.193" style="fill:none;fill-opacity:.9372549;stroke:#000;stroke-width:1.53315544;stroke-linejoin:bevel;stroke-miterlimit:4;stroke-dasharray:4.59946636,1.53315545;stroke-dashoffset:0;stroke-opacity:1"/><text id="text4136-5" x="108.955" y="200.677" xml:space="preserve" style="font-style:normal;font-weight:400;font-size:12px;line-height:0%;font-family:sans-serif;letter-spacing:0;word-spacing:0;fill:#000;fill-opacity:1;stroke:none;stroke-width:1px;stroke-linecap:butt;stroke-linejoin:miter;stroke-opacity:1"><tspan style="font-size:12.50000095px;line-height:1.25;stroke-width:1px" id="tspan4140-0" x="108.955" y="200.677">Docker layer B</tspan></text><rect id="rect4228-6" width="121.55" height="42.702" x="94.582" y="175.877" style="fill:none;fill-opacity:1;stroke:#ffa607;stroke-width:1.53315544;stroke-linejoin:bevel;stroke-miterlimit:4;stroke-dasharray:none;stroke-dashoffset:0;stroke-opacity:1"/><text id="text4136-6" x="35.294" y="250.23" xml:space="preserve" style="font-style:normal;font-weight:400;font-size:12px;line-height:0%;font-family:sans-serif;letter-spacing:0;word-spacing:0;fill:#000;fill-opacity:1;stroke:none;stroke-width:1px;stroke-linecap:butt;stroke-linejoin:miter;stroke-opacity:1"><tspan style="font-size:12.50000095px;line-height:1.25;stroke-width:1px" id="tspan4140-8" x="35.294" y="250.23">Docker layer C</tspan></text><rect id="rect4228-1" width="121.55" height="42.702" x="20.921" y="225.431" style="fill:none;fill-opacity:1;stroke:#ffa607;stroke-width:1.53315544;stroke-linejoin:bevel;stroke-miterlimit:4;stroke-dasharray:none;stroke-dashoffset:0;stroke-opacity:1"/><text id="text4136-7" x="117.661" y="301.793" xml:space="preserve" style="font-style:normal;font-weight:400;font-size:12px;line-height:0%;font-family:sans-serif;letter-spacing:0;word-spacing:0;fill:#000;fill-opacity:1;stroke:none;stroke-width:1px;stroke-linecap:butt;stroke-linejoin:miter;stroke-opacity:1"><tspan style="font-size:12.50000095px;line-height:1.25;stroke-width:1px" id="tspan4140-6" x="117.661" y="301.793">Docker layer D</tspan></text><rect id="rect4228-5" width="121.55" height="42.702" x="103.287" y="276.993" style="fill:none;fill-opacity:1;stroke:#ffa607;stroke-width:1.53315544;stroke-linejoin:bevel;stroke-miterlimit:4;stroke-dasharray:none;stroke-dashoffset:0;stroke-opacity:1"/><text id="text4136-73" x="288.228" y="149.48" xml:space="preserve" style="font-style:normal;font-weight:400;font-size:12px;line-height:0%;font-family:sans-serif;letter-spacing:0;word-spacing:0;fill:#000;fill-opacity:1;stroke:none;stroke-width:1px;stroke-linecap:butt;stroke-linejoin:miter;stroke-opacity:1"><tspan style="font-size:12.50000095px;line-height:1.25;stroke-width:1px" id="tspan4140-4" x="288.228" y="149.48">Docker layer X</tspan></text><rect id="rect4228-61" width="121.55" height="42.702" x="273.854" y="124.68" style="fill:none;fill-opacity:1;stroke:#ffa607;stroke-width:1.53315544;stroke-linejoin:bevel;stroke-miterlimit:4;stroke-dasharray:none;stroke-dashoffset:0;stroke-opacity:1"/><text id="text4338-72" x="312.768" y="95.482" xml:space="preserve" style="font-style:normal;font-weight:400;font-size:12px;line-height:0%;font-family:sans-serif;letter-spacing:0;word-spacing:0;fill:#000;fill-opacity:.9372549;stroke:none;stroke-width:1px;stroke-linecap:butt;stroke-linejoin:miter;stroke-opacity:1"><tspan style="font-size:17.2480011px;line-height:1.25;fill:#000;fill-opacity:.9372549;stroke-width:1px" id="tspan4340-5" x="312.768" y="95.482">Build Node 23</tspan></text><rect id="rect4364-2" width="245.067" height="277.626" x="262.511" y="106.008" style="fill:none;fill-opacity:.9372549;stroke:#000;stroke-width:1.53315544;stroke-linejoin:bevel;stroke-miterlimit:4;stroke-dasharray:4.59946651,1.5331555;stroke-dashoffset:0;stroke-opacity:1"/><text id="text4136-5-3" x="381.158" y="201.492" xml:space="preserve" style="font-style:normal;font-weight:400;font-size:12px;line-height:0%;font-family:sans-serif;letter-spacing:0;word-spacing:0;fill:#000;fill-opacity:1;stroke:none;stroke-width:1px;stroke-linecap:butt;stroke-linejoin:miter;stroke-opacity:1"><tspan style="font-size:12.50000191px;line-height:1.25;stroke-width:1px" id="tspan4140-0-1" x="381.158" y="201.492">Docker layer Y</tspan></text><rect id="rect4228-6-2" width="121.55" height="42.702" x="366.785" y="176.692" style="fill:none;fill-opacity:1;stroke:#ffa607;stroke-width:1.53315544;stroke-linejoin:bevel;stroke-miterlimit:4;stroke-dasharray:none;stroke-dashoffset:0;stroke-opacity:1"/><text id="text4136-6-4" x="307.498" y="251.045" xml:space="preserve" style="font-style:normal;font-weight:400;font-size:12px;line-height:0%;font-family:sans-serif;letter-spacing:0;word-spacing:0;fill:#000;fill-opacity:1;stroke:none;stroke-width:1px;stroke-linecap:butt;stroke-linejoin:miter;stroke-opacity:1"><tspan style="font-size:12.50000191px;line-height:1.25;stroke-width:1px" id="tspan4140-8-3" x="307.498" y="251.045">Docker layer Z</tspan></text><rect id="rect4228-1-0" width="121.55" height="42.702" x="293.124" y="226.246" style="fill:none;fill-opacity:1;stroke:#ffa607;stroke-width:1.53315544;stroke-linejoin:bevel;stroke-miterlimit:4;stroke-dasharray:none;stroke-dashoffset:0;stroke-opacity:1"/><text id="text4338-1" x="586.652" y="96.152" xml:space="preserve" style="font-style:normal;font-weight:400;font-size:12px;line-height:0%;font-family:sans-serif;letter-spacing:0;word-spacing:0;fill:#000;fill-opacity:.9372549;stroke:none;stroke-width:1px;stroke-linecap:butt;stroke-linejoin:miter;stroke-opacity:1"><tspan style="font-size:17.2480011px;line-height:1.25;fill:#000;fill-opacity:.9372549;stroke-width:1px" id="tspan4340-56" x="586.652" y="96.152">Build Node 18</tspan></text><rect id="rect4364-7" width="245.067" height="277.626" x="536.395" y="106.678" style="fill:none;fill-opacity:.9372549;stroke:#000;stroke-width:1.53315544;stroke-linejoin:bevel;stroke-miterlimit:4;stroke-dasharray:4.59946651,1.5331555;stroke-dashoffset:0;stroke-opacity:1"/></g></svg>