<svg xmlns="http://www.w3.org/2000/svg" xmlns:svg="http://www.w3.org/2000/svg" id="svg2" width="210mm" height="297mm" version="1.1" viewBox="0 0 744.094 1052.362"><defs id="defs4"><marker style="overflow:visible" id="marker6217" orient="auto" refX="0" refY="0"><path style="fill-rule:evenodd;stroke:#0096ff;stroke-width:1pt;stroke-opacity:1;fill:#0096ff;fill-opacity:1" id="path6219" d="M 0.0,0.0 L 5.0,-5.0 L -12.5,0.0 L 5.0,5.0 L 0.0,0.0 z" transform="scale(0.2) translate(6,0)"/></marker><marker style="overflow:visible" id="marker6153" orient="auto" refX="0" refY="0"><path style="fill-rule:evenodd;stroke:#000;stroke-width:1pt;stroke-opacity:1;fill:#000;fill-opacity:1" id="path6155" d="M 0.0,0.0 L 5.0,-5.0 L -12.5,0.0 L 5.0,5.0 L 0.0,0.0 z" transform="scale(0.2) translate(6,0)"/></marker><marker style="overflow:visible" id="marker6095" orient="auto" refX="0" refY="0"><path style="fill-rule:evenodd;stroke:#0096ff;stroke-width:1pt;stroke-opacity:1;fill:#0096ff;fill-opacity:1" id="path6097" d="M 0.0,0.0 L 5.0,-5.0 L -12.5,0.0 L 5.0,5.0 L 0.0,0.0 z" transform="scale(0.2) translate(6,0)"/></marker><marker style="overflow:visible" id="Arrow1Sstart" orient="auto" refX="0" refY="0"><path style="fill-rule:evenodd;stroke:#0096ff;stroke-width:1pt;stroke-opacity:1;fill:#0096ff;fill-opacity:1" id="path4438" d="M 0.0,0.0 L 5.0,-5.0 L -12.5,0.0 L 5.0,5.0 L 0.0,0.0 z" transform="scale(0.2) translate(6,0)"/></marker><marker style="overflow:visible" id="Arrow1Mend" orient="auto" refX="0" refY="0"><path style="fill-rule:evenodd;stroke:#0096ff;stroke-width:1pt;stroke-opacity:1;fill:#0096ff;fill-opacity:1" id="path4435" d="M 0.0,0.0 L 5.0,-5.0 L -12.5,0.0 L 5.0,5.0 L 0.0,0.0 z" transform="scale(0.4) rotate(180) translate(10,0)"/></marker><marker style="overflow:visible" id="Arrow2Send" orient="auto" refX="0" refY="0"><path style="fill-rule:evenodd;stroke-width:.625;stroke-linejoin:round;stroke:#64a508;stroke-opacity:.4;fill:#64a508;fill-opacity:.4" id="path4459" d="M 8.7185878,4.0337352 L -2.2072895,0.016013256 L 8.7185884,-4.0017078 C 6.9730900,-1.6296469 6.9831476,1.6157441 8.7185878,4.0337352 z" transform="scale(0.3) rotate(180) translate(-2.3,0)"/></marker><marker style="overflow:visible" id="Arrow2Send-2" orient="auto" refX="0" refY="0"><path style="fill:#64a508;fill-opacity:.4;fill-rule:evenodd;stroke:#64a508;stroke-width:.625;stroke-linejoin:round;stroke-opacity:.4" id="path4459-0" d="M 8.7185878,4.0337352 -2.2072895,0.01601326 8.7185884,-4.0017078 c -1.7454984,2.3720609 -1.7354408,5.6174519 -6e-7,8.035443 z" transform="matrix(-0.3,0,0,-0.3,0.69,0)"/></marker><marker style="overflow:visible" id="Arrow2Send-2-5" orient="auto" refX="0" refY="0"><path style="fill:#64a508;fill-opacity:.4;fill-rule:evenodd;stroke:#64a508;stroke-width:.625;stroke-linejoin:round;stroke-opacity:.4" id="path4459-0-9" d="M 8.7185878,4.0337352 -2.2072895,0.01601326 8.7185884,-4.0017078 c -1.7454984,2.3720609 -1.7354408,5.6174519 -6e-7,8.035443 z" transform="matrix(-0.3,0,0,-0.3,0.69,0)"/></marker><marker style="overflow:visible" id="Arrow2Send-2-8" orient="auto" refX="0" refY="0"><path style="fill:#64a508;fill-opacity:.4;fill-rule:evenodd;stroke:#64a508;stroke-width:.625;stroke-linejoin:round;stroke-opacity:.4" id="path4459-0-4" d="M 8.7185878,4.0337352 -2.2072895,0.01601326 8.7185884,-4.0017078 c -1.7454984,2.3720609 -1.7354408,5.6174519 -6e-7,8.035443 z" transform="matrix(-0.3,0,0,-0.3,0.69,0)"/></marker><marker style="overflow:visible" id="marker6095-5" orient="auto" refX="0" refY="0"><path style="fill:#000;fill-opacity:1;fill-rule:evenodd;stroke:#000;stroke-width:1pt;stroke-opacity:1" id="path6097-2" d="M 0,0 5,-5 -12.5,0 5,5 0,0 Z" transform="matrix(0.2,0,0,0.2,1.2,0)"/></marker><marker style="overflow:visible" id="Arrow1Mend-4" orient="auto" refX="0" refY="0"><path style="fill:#0096ff;fill-opacity:1;fill-rule:evenodd;stroke:#0096ff;stroke-width:1pt;stroke-opacity:1" id="path4435-7" d="M 0,0 5,-5 -12.5,0 5,5 0,0 Z" transform="matrix(-0.4,0,0,-0.4,-4,0)"/></marker><marker style="overflow:visible" id="Arrow1Mend-43" orient="auto" refX="0" refY="0"><path style="fill:#0096ff;fill-opacity:1;fill-rule:evenodd;stroke:#0096ff;stroke-width:1pt;stroke-opacity:1" id="path4435-0" d="M 0,0 5,-5 -12.5,0 5,5 0,0 Z" transform="matrix(-0.4,0,0,-0.4,-4,0)"/></marker><marker style="overflow:visible" id="Arrow1Mend-8" orient="auto" refX="0" refY="0"><path style="fill:#0096ff;fill-opacity:1;fill-rule:evenodd;stroke:#0096ff;stroke-width:1pt;stroke-opacity:1" id="path4435-6" d="M 0,0 5,-5 -12.5,0 5,5 0,0 Z" transform="matrix(-0.4,0,0,-0.4,-4,0)"/></marker></defs><metadata id="metadata7"/><g id="layer1"><text id="text5946" x="67.143" y="67.362" xml:space="preserve" style="font-style:normal;font-weight:400;font-size:25px;line-height:125%;font-family:sans-serif;letter-spacing:0;word-spacing:0;fill:#0096ff;fill-opacity:1;stroke:none;stroke-width:1px;stroke-linecap:butt;stroke-linejoin:miter;stroke-opacity:1"><tspan id="tspan5948" x="67.143" y="67.362">/codefresh/volume</tspan></text><text id="text5946-4" x="182.904" y="111.414" xml:space="preserve" style="font-style:normal;font-weight:400;font-size:25px;line-height:125%;font-family:sans-serif;letter-spacing:0;word-spacing:0;fill:#0096ff;fill-opacity:1;stroke:none;stroke-width:1px;stroke-linecap:butt;stroke-linejoin:miter;stroke-opacity:1"><tspan id="tspan5948-7" x="182.904" y="111.414">my-git-project</tspan></text><text id="text5946-4-6" x="273.313" y="163.545" xml:space="preserve" style="font-style:normal;font-weight:400;font-size:25px;line-height:125%;font-family:sans-serif;letter-spacing:0;word-spacing:0;fill:#0096ff;fill-opacity:1;stroke:none;stroke-width:1px;stroke-linecap:butt;stroke-linejoin:miter;stroke-opacity:1"><tspan id="tspan5948-7-5" x="273.313" y="163.545">file 1</tspan></text><text id="text5946-4-69" x="273.313" y="201.045" xml:space="preserve" style="font-style:normal;font-weight:400;font-size:25px;line-height:125%;font-family:sans-serif;letter-spacing:0;word-spacing:0;fill:#0096ff;fill-opacity:1;stroke:none;stroke-width:1px;stroke-linecap:butt;stroke-linejoin:miter;stroke-opacity:1"><tspan id="tspan5948-7-3" x="273.313" y="201.045">file 2</tspan></text><text id="text5946-4-7" x="273.313" y="238.545" xml:space="preserve" style="font-style:normal;font-weight:400;font-size:25px;line-height:125%;font-family:sans-serif;letter-spacing:0;word-spacing:0;fill:#0096ff;fill-opacity:1;stroke:none;stroke-width:1px;stroke-linecap:butt;stroke-linejoin:miter;stroke-opacity:1"><tspan id="tspan5948-7-4" x="273.313" y="238.545">file 2</tspan></text><rect id="rect7786" width="219.286" height="45" x="165.714" y="82.362" style="fill:none;fill-opacity:1;stroke:#000;stroke-width:3.06599998;stroke-linejoin:bevel;stroke-miterlimit:4;stroke-dasharray:6.13199997,3.06599998;stroke-dashoffset:0;stroke-opacity:1"/><path id="path5119-7-2-0-5" d="m 405.62687,104.37327 146.4456,77.14285" style="fill:none;fill-rule:evenodd;stroke:#000;stroke-width:3.06631088;stroke-linecap:butt;stroke-linejoin:miter;stroke-miterlimit:4;stroke-dasharray:none;stroke-opacity:1;marker-start:url(#marker6095-5);marker-end:url(#marker6153)"/><text id="text8273" x="462.857" y="200.219" xml:space="preserve" style="font-style:normal;font-weight:400;font-size:15px;line-height:125%;font-family:sans-serif;letter-spacing:0;word-spacing:0;fill:#000;fill-opacity:1;stroke:none;stroke-width:1px;stroke-linecap:butt;stroke-linejoin:miter;stroke-opacity:1"><tspan id="tspan8275" x="462.857" y="200.219">Default</tspan><tspan id="tspan8277" x="462.857" y="218.969">Working directory</tspan></text><path id="path8627" d="m 113.57143,84.505061 0,25.000009 27.14286,0" style="fill:none;fill-rule:evenodd;stroke:#0096ff;stroke-width:2;stroke-linecap:butt;stroke-linejoin:miter;stroke-miterlimit:4;stroke-dasharray:none;stroke-opacity:1;marker-end:url(#Arrow1Mend)"/><path id="path8627-4" d="m 222.8757,136.64249 0,25.00001 27.14286,0" style="fill:none;fill-rule:evenodd;stroke:#0096ff;stroke-width:2;stroke-linecap:butt;stroke-linejoin:miter;stroke-miterlimit:4;stroke-dasharray:none;stroke-opacity:1;marker-end:url(#Arrow1Mend-4)"/><path id="path8627-7" d="m 222.8757,173.78534 0,25.00001 27.14286,0" style="fill:none;fill-rule:evenodd;stroke:#0096ff;stroke-width:2;stroke-linecap:butt;stroke-linejoin:miter;stroke-miterlimit:4;stroke-dasharray:none;stroke-opacity:1;marker-end:url(#Arrow1Mend-43)"/><path id="path8627-8" d="m 222.8757,210.21392 0,25.00001 27.14286,0" style="fill:none;fill-rule:evenodd;stroke:#0096ff;stroke-width:2;stroke-linecap:butt;stroke-linejoin:miter;stroke-miterlimit:4;stroke-dasharray:none;stroke-opacity:1;marker-end:url(#Arrow1Mend-8)"/></g></svg>