<svg xmlns="http://www.w3.org/2000/svg" xmlns:svg="http://www.w3.org/2000/svg" id="svg2" width="210mm" height="297mm" version="1.1" viewBox="0 0 744.094 1052.362"><defs id="defs4"><marker style="overflow:visible" id="marker6217" orient="auto" refX="0" refY="0"><path style="fill-rule:evenodd;stroke:#0096ff;stroke-width:1pt;stroke-opacity:1;fill:#0096ff;fill-opacity:1" id="path6219" d="M 0.0,0.0 L 5.0,-5.0 L -12.5,0.0 L 5.0,5.0 L 0.0,0.0 z" transform="scale(0.2) translate(6,0)"/></marker><marker style="overflow:visible" id="marker6153" orient="auto" refX="0" refY="0"><path style="fill-rule:evenodd;stroke:#0096ff;stroke-width:1pt;stroke-opacity:1;fill:#0096ff;fill-opacity:1" id="path6155" d="M 0.0,0.0 L 5.0,-5.0 L -12.5,0.0 L 5.0,5.0 L 0.0,0.0 z" transform="scale(0.2) translate(6,0)"/></marker><marker style="overflow:visible" id="marker6095" orient="auto" refX="0" refY="0"><path style="fill-rule:evenodd;stroke:#0096ff;stroke-width:1pt;stroke-opacity:1;fill:#0096ff;fill-opacity:1" id="path6097" d="M 0.0,0.0 L 5.0,-5.0 L -12.5,0.0 L 5.0,5.0 L 0.0,0.0 z" transform="scale(0.2) translate(6,0)"/></marker><marker style="overflow:visible" id="Arrow1Sstart" orient="auto" refX="0" refY="0"><path style="fill-rule:evenodd;stroke:#0096ff;stroke-width:1pt;stroke-opacity:1;fill:#0096ff;fill-opacity:1" id="path4438" d="M 0.0,0.0 L 5.0,-5.0 L -12.5,0.0 L 5.0,5.0 L 0.0,0.0 z" transform="scale(0.2) translate(6,0)"/></marker><marker style="overflow:visible" id="Arrow1Mend" orient="auto" refX="0" refY="0"><path style="fill-rule:evenodd;stroke:#0096ff;stroke-width:1pt;stroke-opacity:1;fill:#0096ff;fill-opacity:1" id="path4435" d="M 0.0,0.0 L 5.0,-5.0 L -12.5,0.0 L 5.0,5.0 L 0.0,0.0 z" transform="scale(0.4) rotate(180) translate(10,0)"/></marker><marker style="overflow:visible" id="Arrow2Send" orient="auto" refX="0" refY="0"><path style="fill-rule:evenodd;stroke-width:.625;stroke-linejoin:round;stroke:#64a508;stroke-opacity:.4;fill:#64a508;fill-opacity:.4" id="path4459" d="M 8.7185878,4.0337352 L -2.2072895,0.016013256 L 8.7185884,-4.0017078 C 6.9730900,-1.6296469 6.9831476,1.6157441 8.7185878,4.0337352 z" transform="scale(0.3) rotate(180) translate(-2.3,0)"/></marker><marker style="overflow:visible" id="Arrow2Send-2" orient="auto" refX="0" refY="0"><path style="fill:#64a508;fill-opacity:.4;fill-rule:evenodd;stroke:#64a508;stroke-width:.625;stroke-linejoin:round;stroke-opacity:.4" id="path4459-0" d="M 8.7185878,4.0337352 -2.2072895,0.01601326 8.7185884,-4.0017078 c -1.7454984,2.3720609 -1.7354408,5.6174519 -6e-7,8.035443 z" transform="matrix(-0.3,0,0,-0.3,0.69,0)"/></marker><marker style="overflow:visible" id="Arrow2Send-2-5" orient="auto" refX="0" refY="0"><path style="fill:#64a508;fill-opacity:.4;fill-rule:evenodd;stroke:#64a508;stroke-width:.625;stroke-linejoin:round;stroke-opacity:.4" id="path4459-0-9" d="M 8.7185878,4.0337352 -2.2072895,0.01601326 8.7185884,-4.0017078 c -1.7454984,2.3720609 -1.7354408,5.6174519 -6e-7,8.035443 z" transform="matrix(-0.3,0,0,-0.3,0.69,0)"/></marker><marker style="overflow:visible" id="Arrow2Send-2-8" orient="auto" refX="0" refY="0"><path style="fill:#64a508;fill-opacity:.4;fill-rule:evenodd;stroke:#64a508;stroke-width:.625;stroke-linejoin:round;stroke-opacity:.4" id="path4459-0-4" d="M 8.7185878,4.0337352 -2.2072895,0.01601326 8.7185884,-4.0017078 c -1.7454984,2.3720609 -1.7354408,5.6174519 -6e-7,8.035443 z" transform="matrix(-0.3,0,0,-0.3,0.69,0)"/></marker><marker style="overflow:visible" id="marker6217-8" orient="auto" refX="0" refY="0"><path style="fill:#0096ff;fill-opacity:1;fill-rule:evenodd;stroke:#0096ff;stroke-width:1pt;stroke-opacity:1" id="path6219-4" d="M 0,0 5,-5 -12.5,0 5,5 0,0 Z" transform="matrix(0.2,0,0,0.2,1.2,0)"/></marker><marker style="overflow:visible" id="marker6153-3" orient="auto" refX="0" refY="0"><path style="fill:#0096ff;fill-opacity:1;fill-rule:evenodd;stroke:#0096ff;stroke-width:1pt;stroke-opacity:1" id="path6155-1" d="M 0,0 5,-5 -12.5,0 5,5 0,0 Z" transform="matrix(0.2,0,0,0.2,1.2,0)"/></marker><marker style="overflow:visible" id="marker6095-4" orient="auto" refX="0" refY="0"><path style="fill:#0096ff;fill-opacity:1;fill-rule:evenodd;stroke:#0096ff;stroke-width:1pt;stroke-opacity:1" id="path6097-9" d="M 0,0 5,-5 -12.5,0 5,5 0,0 Z" transform="matrix(0.2,0,0,0.2,1.2,0)"/></marker><marker style="overflow:visible" id="Arrow2Send-2-2" orient="auto" refX="0" refY="0"><path style="fill:#64a508;fill-opacity:.4;fill-rule:evenodd;stroke:#64a508;stroke-width:.625;stroke-linejoin:round;stroke-opacity:.4" id="path4459-0-0" d="M 8.7185878,4.0337352 -2.2072895,0.01601326 8.7185884,-4.0017078 c -1.7454984,2.3720609 -1.7354408,5.6174519 -6e-7,8.035443 z" transform="matrix(-0.3,0,0,-0.3,0.69,0)"/></marker><marker style="overflow:visible" id="Arrow2Send-6" orient="auto" refX="0" refY="0"><path style="fill:#64a508;fill-opacity:.4;fill-rule:evenodd;stroke:#64a508;stroke-width:.625;stroke-linejoin:round;stroke-opacity:.4" id="path4459-8" d="M 8.7185878,4.0337352 -2.2072895,0.01601326 8.7185884,-4.0017078 c -1.7454984,2.3720609 -1.7354408,5.6174519 -6e-7,8.035443 z" transform="matrix(-0.3,0,0,-0.3,0.69,0)"/></marker><marker style="overflow:visible" id="Arrow2Send-1" orient="auto" refX="0" refY="0"><path style="fill:#64a508;fill-opacity:.4;fill-rule:evenodd;stroke:#64a508;stroke-width:.625;stroke-linejoin:round;stroke-opacity:.4" id="path4459-2" d="M 8.7185878,4.0337352 -2.2072895,0.01601326 8.7185884,-4.0017078 c -1.7454984,2.3720609 -1.7354408,5.6174519 -6e-7,8.035443 z" transform="matrix(-0.3,0,0,-0.3,0.69,0)"/></marker><marker style="overflow:visible" id="Arrow2Send-3" orient="auto" refX="0" refY="0"><path style="fill:#64a508;fill-opacity:.4;fill-rule:evenodd;stroke:#64a508;stroke-width:.625;stroke-linejoin:round;stroke-opacity:.4" id="path4459-9" d="M 8.7185878,4.0337352 -2.2072895,0.01601326 8.7185884,-4.0017078 c -1.7454984,2.3720609 -1.7354408,5.6174519 -6e-7,8.035443 z" transform="matrix(-0.3,0,0,-0.3,0.69,0)"/></marker><marker style="overflow:visible" id="Arrow2Send-8" orient="auto" refX="0" refY="0"><path style="fill:#64a508;fill-opacity:.4;fill-rule:evenodd;stroke:#64a508;stroke-width:.625;stroke-linejoin:round;stroke-opacity:.4" id="path4459-85" d="M 8.7185878,4.0337352 -2.2072895,0.01601326 8.7185884,-4.0017078 c -1.7454984,2.3720609 -1.7354408,5.6174519 -6e-7,8.035443 z" transform="matrix(-0.3,0,0,-0.3,0.69,0)"/></marker></defs><metadata id="metadata7"/><g id="layer1"><text id="text4136" x="414.984" y="139.669" xml:space="preserve" style="font-style:normal;font-weight:400;font-size:15.33155441px;line-height:125%;font-family:sans-serif;letter-spacing:0;word-spacing:0;fill:#000;fill-opacity:1;stroke:none;stroke-width:1px;stroke-linecap:butt;stroke-linejoin:miter;stroke-opacity:1"><tspan id="tspan4140" x="414.984" y="139.669">build step</tspan></text><rect id="rect4228" width="232.711" height="54.756" x="336.785" y="108.062" style="fill:none;fill-opacity:1;stroke:#64a607;stroke-width:1.53315544;stroke-linejoin:bevel;stroke-miterlimit:4;stroke-dasharray:none;stroke-dashoffset:0;stroke-opacity:1"/><text id="text4136-3" x="400.847" y="221.803" xml:space="preserve" style="font-style:normal;font-weight:400;font-size:15.33155441px;line-height:125%;font-family:sans-serif;letter-spacing:0;word-spacing:0;fill:#000;fill-opacity:1;stroke:none;stroke-width:1px;stroke-linecap:butt;stroke-linejoin:miter;stroke-opacity:1"><tspan id="tspan4138-6" x="400.847" y="221.803">freestyle step 1</tspan></text><rect id="rect4228-2" width="232.711" height="54.756" x="336.785" y="190.195" style="fill:none;fill-opacity:1;stroke:#64a607;stroke-width:1.53315544;stroke-linejoin:bevel;stroke-miterlimit:4;stroke-dasharray:none;stroke-dashoffset:0;stroke-opacity:1"/><text id="text4136-3-5" x="400.847" y="303.936" xml:space="preserve" style="font-style:normal;font-weight:400;font-size:15.33155441px;line-height:125%;font-family:sans-serif;letter-spacing:0;word-spacing:0;fill:#000;fill-opacity:1;stroke:none;stroke-width:1px;stroke-linecap:butt;stroke-linejoin:miter;stroke-opacity:1"><tspan id="tspan4138-6-3" x="400.847" y="303.936">freestyle step 2</tspan></text><rect id="rect4228-7" width="232.711" height="54.756" x="336.785" y="272.329" style="fill:none;fill-opacity:1;stroke:#64a607;stroke-width:1.53315544;stroke-linejoin:bevel;stroke-miterlimit:4;stroke-dasharray:none;stroke-dashoffset:0;stroke-opacity:1"/><g id="g5742" transform="matrix(0.76657773,0,0,0.76657773,-4.2064971,92.310302)"><text style="font-style:normal;font-weight:400;font-size:15px;line-height:125%;font-family:sans-serif;letter-spacing:0;word-spacing:0;fill:#000;fill-opacity:1;stroke:none;stroke-width:1px;stroke-linecap:butt;stroke-linejoin:miter;stroke-opacity:1" id="text4188-6" x="50.144" y="168.73" xml:space="preserve"><tspan id="tspan4190-2" x="50.144" y="168.73">custom-py:1.0</tspan></text><rect style="fill:none;fill-opacity:1;stroke:#0096ff;stroke-width:2;stroke-linejoin:bevel;stroke-miterlimit:4;stroke-dasharray:none;stroke-dashoffset:0;stroke-opacity:1" id="rect4269" width="145" height="62.857" x="35" y="134.505"/></g><g id="g5754" transform="matrix(0.76657773,0,0,0.76657773,162.93636,6.5960166)"><text style="font-style:normal;font-weight:400;font-size:15px;line-height:125%;font-family:sans-serif;letter-spacing:0;word-spacing:0;fill:#000;fill-opacity:1;stroke:none;stroke-width:1px;stroke-linecap:butt;stroke-linejoin:miter;stroke-opacity:1" id="text4188-9" x="65.111" y="281.883" xml:space="preserve"><tspan id="tspan4190-1" x="65.111" y="281.883">rails:2.6.0</tspan></text><rect style="fill:none;fill-opacity:1;stroke:#0096ff;stroke-width:2;stroke-linejoin:bevel;stroke-miterlimit:4;stroke-dasharray:none;stroke-dashoffset:0;stroke-opacity:1" id="rect4269-0" width="145" height="62.857" x="35" y="244.862"/></g><text id="text4188" x="204.413" y="306.063" xml:space="preserve" style="font-style:normal;font-weight:400;font-size:11.49866581px;line-height:125%;font-family:sans-serif;letter-spacing:0;word-spacing:0;fill:#000;fill-opacity:1;stroke:none;stroke-width:1.53315544;stroke-linecap:butt;stroke-linejoin:miter;stroke-opacity:1;stroke-miterlimit:4;stroke-dasharray:3.06631088,3.06631088;stroke-dashoffset:0"><tspan id="tspan4190" x="204.413" y="306.063">custom-py:1.0</tspan></text><rect id="rect4269-9" width="111.154" height="48.185" x="189.767" y="278.899" style="fill:none;fill-opacity:1;stroke:#0096ff;stroke-width:1.53315544;stroke-linejoin:bevel;stroke-miterlimit:4;stroke-dasharray:3.06631088,3.06631088;stroke-dashoffset:0;stroke-opacity:1"/><text id="text4338" x="364.984" y="70.828" xml:space="preserve" style="font-style:normal;font-weight:400;font-size:17.24799919px;line-height:125%;font-family:sans-serif;letter-spacing:0;word-spacing:0;fill:#64a607;fill-opacity:.9372549;stroke:none;stroke-width:1px;stroke-linecap:butt;stroke-linejoin:miter;stroke-opacity:1"><tspan id="tspan4340" x="364.984" y="70.828">Codefresh Pipeline</tspan></text><text id="text4338-3" x="187.334" y="62.474" xml:space="preserve" style="font-style:normal;font-weight:400;font-size:17.24799919px;line-height:125%;font-family:sans-serif;letter-spacing:0;word-spacing:0;fill:#0096ff;fill-opacity:1;stroke:none;stroke-width:1px;stroke-linecap:butt;stroke-linejoin:miter;stroke-opacity:1"><tspan id="tspan4340-6" x="187.334" y="62.474">Docker</tspan><tspan id="tspan5117" x="187.334" y="84.034">Build Context</tspan></text><rect id="rect4364" width="265.826" height="277.626" x="320.085" y="80.684" style="fill:none;fill-opacity:.9372549;stroke:#64a607;stroke-width:1.53315544;stroke-linejoin:bevel;stroke-miterlimit:4;stroke-dasharray:4.59946636,1.53315545;stroke-dashoffset:0;stroke-opacity:.89803922"/><path id="path4420" d="m 449.30789,167.74549 0,14.78399" style="fill:none;fill-opacity:1;fill-rule:evenodd;stroke:#64a508;stroke-width:2.29973316;stroke-linecap:butt;stroke-linejoin:miter;stroke-miterlimit:4;stroke-dasharray:none;stroke-opacity:.4;marker-end:url(#Arrow2Send)"/><path id="path5119-3" d="m 291.33813,208.2646 58.58844,0" style="fill:none;fill-rule:evenodd;stroke:#0096ff;stroke-width:3.06631088;stroke-linecap:butt;stroke-linejoin:miter;stroke-miterlimit:4;stroke-dasharray:none;stroke-opacity:1"/><path id="path5119-7" d="m 288.60036,292.47863 58.58843,0" style="fill:none;fill-rule:evenodd;stroke:#0096ff;stroke-width:3.06631088;stroke-linecap:butt;stroke-linejoin:miter;stroke-miterlimit:4;stroke-dasharray:none;stroke-opacity:1"/><text id="text5946" x="20" y="109.505" xml:space="preserve" style="font-style:normal;font-weight:400;font-size:25px;line-height:125%;font-family:sans-serif;letter-spacing:0;word-spacing:0;fill:#0096ff;fill-opacity:1;stroke:none;stroke-width:1px;stroke-linecap:butt;stroke-linejoin:miter;stroke-opacity:1"><tspan id="tspan5948" x="20" y="109.505">Docker</tspan><tspan id="tspan12389" x="20" y="140.755">registry</tspan></text><path id="path5119-7-2-0-6" d="M 177.49149,303.79078 102.5085,248.0765" style="fill:none;fill-rule:evenodd;stroke:#0096ff;stroke-width:3.06631088;stroke-linecap:butt;stroke-linejoin:miter;stroke-miterlimit:4;stroke-dasharray:none;stroke-opacity:1;marker-start:url(#marker6153)"/><path id="path5119-7-2-0-1" d="M 105.34864,180.21935 347.50851,128.07649" style="fill:none;fill-rule:evenodd;stroke:#0096ff;stroke-width:3.06631088;stroke-linecap:butt;stroke-linejoin:miter;stroke-miterlimit:4;stroke-dasharray:none;stroke-opacity:1;marker-start:url(#marker6217)"/><path id="path4420-9" d="m 448.56038,249.73616 0,14.78399" style="fill:none;fill-opacity:1;fill-rule:evenodd;stroke:#64a508;stroke-width:2.29973316;stroke-linecap:butt;stroke-linejoin:miter;stroke-miterlimit:4;stroke-dasharray:none;stroke-opacity:.4;marker-end:url(#Arrow2Send-1)"/><text id="text13315" x="132.87" y="192.572" transform="matrix(0.97094735,-0.2392932,0.2392932,0.97094735,0,0)" xml:space="preserve" style="font-style:normal;font-weight:400;font-size:15px;line-height:125%;font-family:sans-serif;letter-spacing:0;word-spacing:0;fill:#0096ff;fill-opacity:1;stroke:none;stroke-width:1px;stroke-linecap:butt;stroke-linejoin:miter;stroke-opacity:1"><tspan id="tspan13317" x="132.87" y="192.572">push</tspan></text><text id="text13315-5" x="271.503" y="128.322" transform="matrix(0.74694047,0.66489092,-0.66489092,0.74694047,0,0)" xml:space="preserve" style="font-style:normal;font-weight:400;font-size:15px;line-height:125%;font-family:sans-serif;letter-spacing:0;word-spacing:0;fill:#0096ff;fill-opacity:1;stroke:none;stroke-width:1px;stroke-linecap:butt;stroke-linejoin:miter;stroke-opacity:1"><tspan id="tspan13317-6" x="271.503" y="128.322">pull</tspan></text></g></svg>